<svg viewBox="0 0 511 511.9" xmlns="http://www.w3.org/2000/svg">
	<path d="M511 150.5a187 187 0 00-12-62.1A125 125 0 00469.5 43a126 126 0 00-45.3-29.5 187.5 187.5 0 00-62-11.9C334.6.3 325.9 0 256.4 0S178.3.3 151 1.5a187.1 187.1 0 00-62 11.9A124.9 124.9 0 0043.4 43 126 126 0 0014 88.3a187.6 187.6 0 00-11.8 62.1C.8 177.8.4 186.5.4 256S.8 334.2 2 361.5a187 187 0 0012 62.1A126.2 126.2 0 0043.4 469a126 126 0 0045.4 29.5 187.6 187.6 0 0062 11.9c27.3 1.2 36 1.5 105.6 1.5s78.2-.3 105.5-1.5a187 187 0 0062-11.9 131 131 0 0075-74.9 187.7 187.7 0 0011.9-62.1c1.1-27.3 1.5-36 1.5-105.5s-.2-78.2-1.4-105.5zm-46.1 209c-1.1 25-5.3 38.5-8.8 47.5a85 85 0 01-48.7 48.6c-9 3.5-22.5 7.7-47.5 8.8-27 1.2-35 1.5-103.3 1.5s-76.5-.3-103.5-1.5c-25-1.1-38.5-5.3-47.5-8.8a78.8 78.8 0 01-29.3-19.1A79.6 79.6 0 0157 407.1c-3.5-9-7.7-22.6-8.7-47.5-1.3-27-1.5-35.1-1.5-103.4s.2-76.5 1.5-103.4c1-25 5.2-38.5 8.7-47.5a77.8 77.8 0 0119.3-29.4c8.2-8.5 18.2-15 29.4-19.1 9-3.5 22.6-7.7 47.5-8.8 27-1.2 35-1.5 103.3-1.5 68.5 0 76.5.3 103.5 1.5 25 1.1 38.5 5.3 47.5 8.8a78.7 78.7 0 0129.3 19.1c8.5 8.3 15 18.3 19.2 29.4 3.5 9 7.7 22.6 8.8 47.5 1.2 27 1.5 35.1 1.5 103.4s-.3 76.3-1.5 103.3zm0 0" />
	<path d="M256.4 124.5a131.5 131.5 0 10.1 263 131.5 131.5 0 000-263zm0 216.8a85.3 85.3 0 110-170.6 85.3 85.3 0 010 170.6zm0 0M423.9 119.3a30.7 30.7 0 11-61.5 0 30.7 30.7 0 0161.5 0zm0 0" />
</svg>
