<svg version="1.1" id="Layer_1" xmlns="http://www.w3.org/2000/svg" x="0" y="0" viewBox="0 0 431.4 431.4" xml:space="preserve">
	<style>
		.st1{fill:#ffc154;stroke:#000;stroke-width:.5;stroke-linejoin:round}
	</style>
	<path class="st1" d="M239.8 257.8c-74.1.1-148.4-.1-222.5.1 1.5.6 3.3.7 4.8 1.1a95.4 95.4 0 0145 19.3c3.8 2.9 7.5 6 11.1 9 2.5 2 4.9 4.2 7.7 5.7 1 .6 2.1.6 3.3.6H310.1c.1 0 .3-.1.3-.3 0-.3-.3-.6-.4-.8-1.5-1.9-3.4-3.6-5.1-5.2a102 102 0 00-65.1-29.5M395.4 257.8h-56.8c-.1.1.1.2.1.3 1.1.9 2.3 1.6 3.3 2.6 2.3 2.1 3.9 4.8 5.3 7.5 3.1 6.3 5 13.2 7.1 19.9.6 1.8 1 3.8 2 5.3l.5.1h1.8c18.1-.1 36.5.2 54.6-.1.1-.9-.3-1.8-.4-2.6l-1.5-5.4c-1.5-5-3-10.1-5.1-14.8a24.2 24.2 0 00-9.5-12.1c-.4-.3-.8-.7-1.4-.7M239.8 137.8c-74.1.1-148.4-.1-222.5.1 1.5.6 3.3.7 4.8 1.1a95.4 95.4 0 0145 19.3c3.8 2.9 7.5 6 11.1 9 2.5 2 4.9 4.2 7.7 5.7 1 .6 2.1.6 3.3.6H310.1c.1 0 .3-.1.3-.3 0-.3-.3-.6-.4-.8-1.5-1.9-3.4-3.6-5.1-5.2a102 102 0 00-65.1-29.5M395.4 137.8H338.7c-.1 0-.1.1 0 .2 1.1.9 2.3 1.7 3.3 2.7a25 25 0 014.6 6.1c3.2 5.9 5.1 12.3 7.1 18.7.8 2.5 1.4 5.1 2.5 7.5.1.2.2.5.5.6h1.3c18.5-.1 37.1.1 55.5-.1.1-.7-.2-1.5-.3-2.1l-1.3-5c-1.4-5-3-10.1-5-14.9-2.5-5.4-5.7-11.5-11.5-13.7" />
</svg>
